Coordinates
version=1
nRows=32
nColumns=12
inDegrees=yes

Units are S.I. units (second, meters, Newtons, ...)
Angles are in degrees

endheader
time	SC_y	SC_z	SC_x	AC_y	AC_z	AC_x	GH_y	GH_z	GH_yy	EL_x	PS_y
       0.0              -58.38         -1.007          32.28          33.79          -8.35        -0.9814         -160.7         -6.461         -144.3           25.8          128.1
 0.0007754              -58.38         -1.006          32.28          33.79         -8.351        -0.9789         -160.7         -6.456         -144.3           25.8          128.1
  0.001551              -58.37         -1.005          32.28          33.79         -8.352        -0.9762         -160.7         -6.452         -144.2           25.8          128.1
  0.002326              -58.37         -1.004          32.28          33.79         -8.354        -0.9733         -160.6         -6.447         -144.2           25.8          128.1
  0.003102              -58.37         -1.003          32.28          33.79         -8.355        -0.9702         -160.6         -6.442         -144.1           25.8          128.1
  0.003877              -58.37         -1.002          32.28          33.79         -8.357         -0.967         -160.5         -6.436         -144.1           25.8          128.1
  0.004653              -58.36         -1.001          32.27          33.79         -8.358        -0.9635         -160.4          -6.43         -144.0          25.79          128.1
  0.005428              -58.36           -1.0          32.27          33.79          -8.36        -0.9598         -160.4         -6.424         -144.0          25.79          128.1
  0.006203              -58.35        -0.9988          32.27          33.79         -8.362        -0.9558         -160.3         -6.417         -143.9          25.79          128.0
  0.006979              -58.35        -0.9975          32.27          33.79         -8.364        -0.9516         -160.2          -6.41         -143.8          25.79          128.0
  0.007754              -58.34        -0.9961          32.26          33.79         -8.367         -0.947         -160.1         -6.402         -143.8          25.79          128.0
   0.00853              -58.34        -0.9946          32.26          33.79         -8.369        -0.9421         -160.1         -6.394         -143.7          25.79          128.0
  0.009305              -58.33         -0.993          32.26          33.79         -8.372        -0.9367         -160.0         -6.384         -143.6          25.79          128.0
   0.01008              -58.33        -0.9913          32.25          33.78         -8.375         -0.931         -159.9         -6.375         -143.5          25.78          128.0
   0.01086              -58.32        -0.9894          32.25          33.78         -8.378        -0.9248         -159.8         -6.364         -143.4          25.78          128.0
   0.01163              -58.32        -0.9874          32.25          33.78         -8.381         -0.918         -159.6         -6.353         -143.3          25.78          128.0
   0.01241              -58.31        -0.9851          32.24          33.78         -8.385        -0.9107         -159.5          -6.34         -143.2          25.78          128.0
   0.01318               -58.3        -0.9827          32.24          33.78         -8.389        -0.9027         -159.4         -6.326         -143.1          25.77          128.0
   0.01396              -58.29        -0.9801          32.23          33.78         -8.393         -0.894         -159.2         -6.312         -143.0          25.77          127.9
   0.01473              -58.28        -0.9772          32.22          33.78         -8.398        -0.8845         -159.0         -6.295         -142.8          25.77          127.9
   0.01551              -58.27         -0.974          32.22          33.78         -8.403         -0.874         -158.9         -6.277         -142.7          25.77          127.9
   0.01628              -58.26        -0.9706          32.21          33.78         -8.409        -0.8625         -158.7         -6.258         -142.5          25.76          127.9
   0.01706              -58.25        -0.9667           32.2          33.77         -8.415        -0.8498         -158.4         -6.236         -142.3          25.76          127.9
   0.01783              -58.23        -0.9624          32.19          33.77         -8.422        -0.8357         -158.2         -6.212         -142.1          25.75          127.8
   0.01861              -58.21        -0.9577          32.19          33.77          -8.43          -0.82         -157.9         -6.185         -141.9          25.75          127.8
   0.01939               -58.2        -0.9524          32.17          33.77         -8.438        -0.8025         -157.6         -6.155         -141.6          25.74          127.8
   0.02016              -58.18        -0.9465          32.16          33.77         -8.448        -0.7829         -157.3         -6.122         -141.3          25.73          127.8
   0.02094              -58.15        -0.9398          32.15          33.76         -8.459        -0.7608         -156.9         -6.084         -141.0          25.73          127.7
   0.02171              -58.13        -0.9323          32.13          33.76         -8.471        -0.7359         -156.4         -6.042         -140.6          25.72          127.7
   0.02249               -58.1        -0.9237          32.12          33.76         -8.485        -0.7076         -155.9         -5.994         -140.2          25.71          127.6
   0.02326              -58.07        -0.9139           32.1          33.75         -8.501        -0.6753         -155.4         -5.938         -139.7           25.7          127.6
   0.02404              -58.03        -0.9027          32.07          33.75          -8.52        -0.6383         -154.7         -5.875         -139.1          25.69          127.5
